<?xml version="1.0" encoding="utf-8"?>
<!-- Generator: Adobe Illustrator 22.1.0, SVG Export Plug-In . SVG Version: 6.00 Build 0)  -->
<svg version="1.1" id="Capa_1" xmlns="http://www.w3.org/2000/svg" xmlns:xlink="http://www.w3.org/1999/xlink" x="0px" y="0px"
	 viewBox="0 0 1470 1470" style="enable-background:new 0 0 1470 1470;" xml:space="preserve">
<style type="text/css">
	.st0{fill:#55E0CB;}
</style>
<g id="Group_1228" transform="translate(135.825 34.841)">
	<path id="Path_952" class="st0" d="M901.2,137.1h168.6c48.6-3.6,91,32.9,94.6,81.5c0.3,4.2,0.3,8.4,0,12.6
		c0,112.3,0.3,224.5,0,337.1c3.7,48.4-32.6,90.7-81.1,94.4c-4.3,0.3-8.7,0.3-13,0H728.8c-48.1,2.1-88.7-35.1-90.9-83.2
		c-0.1-2.4-0.1-4.7,0-7.1c-0.3-115.2-0.3-230.5,0-345.9c-1-48.4,37.4-88.4,85.8-89.4c1.5,0,3,0,4.5,0L901.2,137.1L901.2,137.1z
		 M899.7,428.4c28.7,0,57.4,0.3,86.5,0c19.1,2,36.2-11.8,38.2-30.9c0.1-1.4,0.2-2.7,0.2-4.1c0.1-19.4-15.5-35.2-34.9-35.3
		c-1.2,0-2.3,0-3.5,0.2c-56.5-0.3-113.1-0.3-169.6,0c-19.3-1.8-36.4,12.4-38.2,31.7c-0.1,1.2-0.2,2.3-0.2,3.5
		c-0.2,19.2,15.2,34.9,34.3,35.1c1.4,0,2.7,0,4.1-0.2L899.7,428.4L899.7,428.4z"/>
	<path id="Path_953" class="st0" d="M297.1,1263.2h-173c-48.1,1.6-88.3-36.1-90-84.1c0-1.3-0.1-2.7,0-4
		c-0.6-116.7-0.6-233.4,0-350.3c-0.3-47.8,38.3-86.8,86.1-87.1c0.7,0,1.3,0,2,0c116.4-0.3,232.4-0.3,348.8,0
		c47.8-1.4,87.7,36.3,89.1,84.2c0,1.6,0,3.1,0,4.7c0.3,115.2,0.3,230.5,0,345.9c1.7,48.5-36.3,89.2-84.8,90.9
		c-2.4,0.1-4.8,0.1-7.3,0c-56.9,0.3-114,0-171.2,0L297.1,1263.2z M297.1,1048.4c13.8,14.4,25.8,27.3,38.1,39.6
		c12.7,14.7,34.9,16.3,49.6,3.6c0.5-0.4,0.9-0.8,1.4-1.2c14-13.2,14.6-35.1,1.5-49.1c-0.9-1-1.9-1.9-2.9-2.8
		c-12.3-12.6-25.2-24.3-40.2-38.4c13.2-12.3,25.2-22.9,36.6-34.3c15.3-12.4,17.6-34.9,5.2-50.2c-0.8-1-1.6-1.9-2.5-2.8
		c-13.9-13.5-36.1-13.2-49.6,0.7c-0.8,0.8-1.5,1.7-2.2,2.5c-11.4,11.1-22.6,22.9-33.1,33.7c-2.6-1.2-3.5-1.2-4.1-1.8
		c-9.7-9.7-19.3-19.3-29-28.7c-12-15.5-34.2-18.3-49.7-6.3s-18.3,34.2-6.3,49.7c1.8,2.3,3.8,4.4,6.1,6.2c10.5,10.5,22,20.2,34,31.1
		c-13.5,12.9-24,22.9-34.6,33.1c-18.5,18.5-20.5,40.2-5,55.1c15.8,15.5,35.8,13.5,55.1-5.9C275.7,1071.5,285.3,1061,297.1,1048.4
		L297.1,1048.4z"/>
	<path id="Path_954" class="st0" d="M297.4,137.1h171.5c48.2-2.5,89.2,34.6,91.7,82.7c0.1,2.7,0.2,5.4,0,8.1
		c0.6,114.6,0.3,229.5,0,344.1c1.7,48.2-36,88.6-84.2,90.3c-2.2,0.1-4.5,0.1-6.7,0c-113.7,0.3-227.5,0.3-341.2,0
		c-57.7,0-93.8-36.6-94.1-94.7V233.8c-0.3-61.3,35.5-96.7,97.3-96.7H297.4z M260.1,431.4c0.8,1.6,1.4,3.3,1.8,5
		c0,15.5,0,31.4,0.3,46.9c-2.8,19.4,10.7,37.4,30.1,40.1c19.4,2.8,37.4-10.7,40.1-30.1c0.4-3.1,0.5-6.3,0.1-9.4V434
		c1.5-0.6,3.1-1.1,4.7-1.5c14.1-0.3,28.4,0,42.5-0.6c6.8,0,13.5-1.1,20-3.2c17.6-7.5,25.8-27.9,18.3-45.5
		c-5.3-12.4-17.2-20.6-30.6-21.1c-17.9-0.9-35.8-0.3-55.1-0.3v-45.7c2.3-19.4-11.5-37-31-39.4c-19.4-2.3-37,11.5-39.4,31
		c-0.3,2.7-0.3,5.4,0,8.1v44.3c-1.6,0.6-3.3,1-5,1.2c-12.6,0-25.5,0-38.1,0.3c-5.4-0.1-10.8,0.2-16.1,0.9
		c-17.7,2.7-30.3,18.5-29,36.3c0.5,17.3,14.3,31.4,31.6,32.2C224,432.2,242.5,431.4,260.1,431.4z"/>
	<path id="Path_955" class="st0" d="M901.8,737.7c57.2,0,114.3-0.3,171.5,0c48.2-2.2,89,35.1,91.2,83.3c0.1,2.7,0.1,5.4,0,8.2
		c0.3,114.3,0.3,228.6,0,343c2.1,48.3-35.4,89.1-83.7,91.2c-2.6,0.1-5.2,0.1-7.8,0c-114.3,0-228.6,0.3-343,0
		c-48.2,2.5-89.3-34.6-91.8-82.8c-0.2-3.2-0.2-6.4,0-9.5c-0.3-113.7-0.3-227.6,0-341.5c-2.5-48.2,34.6-89.3,82.8-91.8
		c3.2-0.2,6.4-0.2,9.5,0L901.8,737.7L901.8,737.7z M899.7,970.1c28.7,0,57.4,0.3,86.5,0c19.4,1.7,36.5-12.7,38.2-32.1
		c1.7-19.4-12.7-36.5-32.1-38.2c-2-0.2-4.1-0.2-6.1,0c-56.5-0.3-113.1-0.3-169.6,0c-19.4-1.6-36.3,12.8-37.9,32.1
		c-1.6,19.4,12.8,36.3,32.1,37.9c2,0.2,4.1,0.2,6.1,0C844,970.1,871.9,970.1,899.7,970.1L899.7,970.1z M901.5,1031.1h-85
		c-18.8-2.4-36,10.8-38.4,29.5c-0.2,1.6-0.3,3.2-0.3,4.7c-0.5,19.3,14.7,35.3,34,35.9c1.3,0,2.6,0,3.9-0.1
		c57.2,0.3,114.3,0.3,171.2,0c19,1.5,35.6-12.7,37.1-31.7c0.1-1.1,0.1-2.1,0.1-3.2c0.7-18.8-14-34.7-32.9-35.4
		c-1.6-0.1-3.3,0-4.9,0.2C958,1030.8,929.9,1031.1,901.5,1031.1L901.5,1031.1z"/>
</g>
</svg>
