<?xml version="1.0" encoding="utf-8"?>
<!-- Generator: Adobe Illustrator 22.1.0, SVG Export Plug-In . SVG Version: 6.00 Build 0)  -->
<svg version="1.1" id="Capa_1" xmlns="http://www.w3.org/2000/svg" xmlns:xlink="http://www.w3.org/1999/xlink" x="0px" y="0px"
	 viewBox="0 0 1470 1470" style="enable-background:new 0 0 1470 1470;" xml:space="preserve">
<style type="text/css">
	.st0{fill:#55E0CB;}
</style>
<path id="ic_supervisor_account_24px-2" class="st0" d="M990.1,735c78.3,0,141.7-63.4,141.7-141.7s-63.4-141.7-141.7-141.7
	c-78.3,0-141.7,63.4-141.7,141.7c-0.2,78,62.8,141.5,140.9,141.7C989.5,735,989.8,735,990.1,735z M564.9,678.3
	c93.9,0,170.1-76.1,170.1-170.1s-76.1-170.1-170.1-170.1s-170.1,76.1-170.1,170.1l0,0c-0.4,93.5,75.1,169.7,168.6,170.1
	C564,678.3,564.5,678.3,564.9,678.3z M990.1,848.4c-103.7,0-311.8,52.2-311.8,155.9v127.5h623.5v-127.5
	C1301.8,900.5,1093.8,848.4,990.1,848.4z M564.9,791.7c-132.1,0-396.8,66.3-396.8,198.4v141.7h396.8v-127.5
	c0-48.2,18.7-132.6,134.3-196.7C655.1,797.9,610.1,792.6,564.9,791.7z"/>
</svg>
