<?xml version="1.0" encoding="utf-8"?>
<!-- Generator: Adobe Illustrator 22.1.0, SVG Export Plug-In . SVG Version: 6.00 Build 0)  -->
<svg version="1.1" id="Capa_1" xmlns="http://www.w3.org/2000/svg" xmlns:xlink="http://www.w3.org/1999/xlink" x="0px" y="0px"
	 viewBox="0 0 165.7 31.3" style="enable-background:new 0 0 165.7 31.3;" xml:space="preserve">
<style type="text/css">
	.st0{fill:#BAFFF6;}
	.st1{fill:#71A29A;}
	.st2{enable-background:new    ;}
</style>
<g id="Group_1471" transform="translate(0 0)">
	<path id="Rectangle_1537" class="st0" d="M15.7,0h133.9c8.6,0,15.7,7,15.7,15.7l0,0c0,8.6-7,15.7-15.7,15.7H15.7
		C7,31.3,0,24.3,0,15.7l0,0C0,7,7,0,15.7,0z"/>
	<path id="ic_done_24px" class="st1" d="M25.3,17.8l-3-3l-1,1l4,4l8.5-8.5l-1-1L25.3,17.8z"/>
	<g class="st2">
		<path class="st1" d="M38.8,16c0-0.7,0.1-1.3,0.3-1.9c0.2-0.6,0.5-1,0.9-1.4c0.8-0.8,1.8-1.2,3.1-1.2c0.7,0,1.4,0.1,2,0.2
			c0.1,0,0.3,0.1,0.4,0.1l-0.3,1.6c-0.3-0.2-0.5-0.3-0.7-0.3c-0.4-0.1-0.8-0.2-1.3-0.2s-0.8,0.1-1.1,0.2s-0.6,0.3-0.8,0.6
			c-0.5,0.5-0.7,1.3-0.7,2.2c0,0.9,0.2,1.7,0.7,2.3c0.5,0.6,1.2,0.9,2,0.9c0.6,0,1.1-0.1,1.7-0.4c0.1-0.1,0.3-0.1,0.3-0.2l0,1.5
			c-0.6,0.2-1,0.4-1.4,0.4s-0.6,0.1-0.9,0.1c-1.4,0-2.4-0.4-3.3-1.2C39.2,18.5,38.8,17.4,38.8,16z"/>
		<path class="st1" d="M47.1,19.5c-0.3-0.3-0.4-0.7-0.5-1.1c-0.1-0.4-0.2-0.9-0.2-1.4s0.1-1,0.3-1.4c0.2-0.4,0.4-0.8,0.7-1
			c0.6-0.6,1.4-0.8,2.4-0.8c1.1,0,1.9,0.4,2.5,1.1c0.5,0.6,0.7,1.4,0.7,2.4c0,1.1-0.3,1.9-1,2.5c-0.6,0.6-1.4,0.8-2.4,0.8
			C48.5,20.5,47.7,20.2,47.1,19.5z M49.7,15.1c-0.9,0-1.4,0.7-1.4,2c0,1,0.2,1.7,0.7,2c0.2,0.1,0.4,0.2,0.6,0.2c0.9,0,1.3-0.7,1.3-2
			c0-1-0.2-1.6-0.7-2C50.2,15.1,49.9,15.1,49.7,15.1z"/>
		<path class="st1" d="M60.4,15.9c0,0.2,0,0.4,0,0.6v4.1h-1.8v-3.8c0-0.6-0.1-0.9-0.2-1.1c-0.1-0.2-0.4-0.3-0.7-0.3
			c-0.3,0-0.7,0.1-1,0.3c-0.1,0.1-0.2,0.2-0.3,0.3v4.7h-1.8v-6.8h1.7l0,0.8c0.4-0.3,1-0.5,1.6-0.7c0.2-0.1,0.5-0.1,0.7-0.1
			c0.8,0,1.3,0.2,1.6,0.8c0.4-0.3,1-0.5,1.6-0.7c0.2-0.1,0.5-0.1,0.8-0.1s0.6,0,0.8,0.1c0.3,0.1,0.5,0.2,0.7,0.4
			c0.4,0.4,0.6,1.1,0.6,2v4.2h-1.8v-3.8c0-0.6,0-0.9-0.1-1.1c-0.1-0.2-0.2-0.3-0.3-0.3c-0.1,0-0.2-0.1-0.3-0.1s-0.2,0-0.2,0
			s-0.2,0-0.3,0s-0.2,0.1-0.4,0.1C60.8,15.6,60.6,15.7,60.4,15.9z"/>
		<path class="st1" d="M70.8,20.3c-0.4,0.2-0.9,0.3-1.3,0.3s-0.9-0.1-1.2-0.2l0,0.9v2.2h-1.8v-9.7h1.7v0.7c0.5-0.5,1.2-0.7,1.9-0.7
			c0.8,0,1.4,0.3,1.9,0.8c0.5,0.6,0.8,1.4,0.8,2.4c0,1.1-0.3,2-0.9,2.6C71.6,19.9,71.2,20.1,70.8,20.3z M69.6,15
			c-0.5,0-0.9,0.1-1.3,0.4V19c0.2,0.2,0.5,0.3,1,0.3c0.4,0,0.8-0.2,1.1-0.6c0.3-0.4,0.4-1,0.4-1.7c0-1-0.3-1.6-0.8-1.8
			C69.9,15.1,69.8,15,69.6,15z"/>
		<path class="st1" d="M74.4,10.8h1.8v9.7h-1.8V10.8z"/>
		<path class="st1" d="M83.5,15.1c0.1,0.3,0.2,0.7,0.2,1.3s0,0.9-0.1,1.2h-4c0.1,1.1,0.7,1.6,1.8,1.6c0.4,0,0.8,0,1.1-0.1
			s0.5-0.2,0.6-0.2l0.3,1c-0.4,0.3-0.9,0.5-1.7,0.6c-0.2,0-0.6,0.1-1,0.1s-0.8-0.1-1.2-0.2s-0.7-0.4-1-0.7c-0.5-0.6-0.8-1.4-0.8-2.5
			c0-1,0.3-1.8,0.8-2.4c0.6-0.6,1.4-1,2.4-1C82.3,13.8,83.1,14.2,83.5,15.1z M82,16.3c0-0.8-0.3-1.2-1-1.2c-0.4,0-0.6,0.1-0.8,0.3
			c-0.2,0.2-0.4,0.6-0.4,1.2H82C82,16.5,82,16.4,82,16.3z"/>
		<path class="st1" d="M85.5,15h-0.8v-1c0.4-0.1,0.6-0.2,0.7-0.2c0.2-0.1,0.3-0.2,0.4-0.4c0.1-0.3,0.3-0.7,0.5-1.2h1.1v1.5h1.8V15
			h-1.8v2.7c0,0.6,0.1,1,0.2,1.2c0.1,0.1,0.1,0.2,0.2,0.2s0.2,0,0.3,0s0.2,0,0.3,0s0.2,0,0.3-0.1c0.2-0.1,0.4-0.1,0.5-0.2l0.2,1
			c-0.3,0.3-0.8,0.5-1.3,0.6c-0.2,0-0.5,0.1-0.7,0.1s-0.5,0-0.8-0.1s-0.4-0.2-0.6-0.4c-0.3-0.3-0.4-0.9-0.4-1.6V15z"/>
		<path class="st1" d="M95.8,15.1c0.1,0.3,0.2,0.7,0.2,1.3s0,0.9-0.1,1.2h-4c0.1,1.1,0.7,1.6,1.8,1.6c0.4,0,0.8,0,1.1-0.1
			s0.5-0.2,0.6-0.2l0.3,1c-0.4,0.3-0.9,0.5-1.7,0.6c-0.2,0-0.6,0.1-1,0.1s-0.8-0.1-1.2-0.2s-0.7-0.4-1-0.7c-0.5-0.6-0.8-1.4-0.8-2.5
			c0-1,0.3-1.8,0.8-2.4c0.6-0.6,1.4-1,2.4-1C94.6,13.8,95.4,14.2,95.8,15.1z M94.3,16.3c0-0.8-0.3-1.2-1-1.2c-0.4,0-0.6,0.1-0.8,0.3
			c-0.2,0.2-0.4,0.6-0.4,1.2h2.3C94.3,16.5,94.3,16.4,94.3,16.3z"/>
		<path class="st1" d="M101.8,19.8c-0.5,0.5-1.2,0.8-2,0.8c-0.8,0-1.4-0.3-1.9-0.8c-0.5-0.6-0.8-1.4-0.8-2.4c0-1.1,0.3-2,0.9-2.6
			c0.6-0.7,1.4-1,2.5-1c0.4,0,0.8,0.1,1.1,0.2l0-0.6v-2.6h1.8v9.7h-1.2c-0.1,0-0.2,0-0.3-0.1s-0.1-0.1-0.1-0.3V19.8z M101.6,15.3
			c-0.2-0.2-0.5-0.2-0.8-0.2s-0.6,0-0.8,0.1s-0.3,0.2-0.5,0.4c-0.3,0.4-0.4,1-0.4,1.7c0,1,0.3,1.6,0.8,1.7c0.2,0.1,0.3,0.1,0.5,0.1
			c0.5,0,0.9-0.1,1.3-0.3V15.3z"/>
		<path class="st1" d="M115,17c-0.3,0.3-0.7,0.5-1.1,0.6s-0.9,0.2-1.5,0.2s-0.9,0-1.1,0v2.7h-1.9v-9h0.6h2.6c1.6,0,2.6,0.6,3,1.7
			c0.1,0.4,0.2,0.9,0.2,1.4c0,0.5-0.1,1-0.2,1.4C115.5,16.4,115.3,16.7,115,17z M114,14.6c0-0.6-0.1-1.1-0.4-1.4s-0.7-0.4-1.2-0.4
			s-0.9,0-1.1,0.1v3.4c0.2,0,0.5,0,0.8,0s0.6,0,0.8-0.1s0.4-0.2,0.6-0.3C113.9,15.7,114,15.3,114,14.6z"/>
		<path class="st1" d="M120.5,15.4c-0.6,0-1.1,0.2-1.5,0.7v4.4h-1.8v-6.8h1.6l0.1,1c0.2-0.4,0.7-0.7,1.3-0.9
			c0.2-0.1,0.4-0.1,0.6-0.1s0.4,0,0.5,0v1.9C121.1,15.5,120.9,15.4,120.5,15.4z"/>
		<path class="st1" d="M123,19.5c-0.3-0.3-0.4-0.7-0.5-1.1c-0.1-0.4-0.2-0.9-0.2-1.4s0.1-1,0.3-1.4c0.2-0.4,0.4-0.8,0.7-1
			c0.6-0.6,1.4-0.8,2.4-0.8c1.1,0,1.9,0.4,2.5,1.1c0.5,0.6,0.7,1.4,0.7,2.4c0,1.1-0.3,1.9-1,2.5c-0.6,0.6-1.4,0.8-2.4,0.8
			C124.4,20.5,123.6,20.2,123,19.5z M125.6,15.1c-0.9,0-1.4,0.7-1.4,2c0,1,0.2,1.7,0.7,2c0.2,0.1,0.4,0.2,0.6,0.2
			c0.9,0,1.3-0.7,1.3-2c0-1-0.2-1.6-0.7-2C126,15.1,125.8,15.1,125.6,15.1z"/>
		<path class="st1" d="M128.8,22.2c0.2,0.1,0.4,0.1,0.6,0.1s0.4,0,0.5-0.1s0.2-0.2,0.3-0.3c0.1-0.3,0.2-0.7,0.2-1.4v-6.7h1.8V20
			c0,1.8-0.5,2.9-1.4,3.3c-0.3,0.1-0.6,0.2-1,0.2c-0.2,0-0.4,0-0.6-0.1s-0.4-0.1-0.4-0.1V22.2z M131.2,12.9c-0.2,0-0.3,0-0.4-0.1
			s-0.2-0.1-0.3-0.2c-0.2-0.2-0.3-0.4-0.3-0.7c0-0.3,0.1-0.6,0.4-0.8c0.2-0.2,0.5-0.3,0.8-0.3c0.3,0,0.6,0.1,0.8,0.3
			c0.2,0.2,0.3,0.4,0.3,0.7c0,0.3-0.1,0.6-0.3,0.8C131.8,12.8,131.6,12.9,131.2,12.9z"/>
		<path class="st1" d="M139.3,15.1c0.1,0.3,0.2,0.7,0.2,1.3s0,0.9-0.1,1.2h-4c0.1,1.1,0.7,1.6,1.8,1.6c0.4,0,0.8,0,1.1-0.1
			s0.5-0.2,0.6-0.2l0.3,1c-0.4,0.3-0.9,0.5-1.7,0.6c-0.2,0-0.6,0.1-1,0.1s-0.8-0.1-1.2-0.2s-0.7-0.4-1-0.7c-0.5-0.6-0.8-1.4-0.8-2.5
			c0-1,0.3-1.8,0.8-2.4c0.6-0.6,1.4-1,2.4-1C138.1,13.8,138.9,14.2,139.3,15.1z M137.8,16.3c0-0.8-0.3-1.2-1-1.2
			c-0.4,0-0.6,0.1-0.8,0.3c-0.2,0.2-0.4,0.6-0.4,1.2h2.3C137.8,16.5,137.8,16.4,137.8,16.3z"/>
		<path class="st1" d="M145.6,18.8l0.3,1.1c-0.3,0.3-0.8,0.5-1.4,0.6c-0.2,0-0.4,0-0.6,0c-1,0-1.8-0.3-2.3-0.9
			c-0.5-0.6-0.8-1.4-0.8-2.4c0-1,0.3-1.8,0.8-2.5c0.6-0.7,1.4-1,2.5-1c0.6,0,1.1,0.1,1.5,0.2c0.1,0,0.2,0.1,0.2,0.1l-0.2,1.4
			c-0.3-0.2-0.8-0.3-1.3-0.3c-0.7,0-1.2,0.3-1.5,0.9c-0.1,0.2-0.2,0.5-0.2,0.9c0,0.3,0,0.6,0.1,0.9c0.1,0.2,0.2,0.5,0.3,0.6
			c0.3,0.3,0.7,0.5,1.3,0.5S145.2,19,145.6,18.8z"/>
		<path class="st1" d="M147.5,15h-0.8v-1c0.4-0.1,0.6-0.2,0.7-0.2c0.2-0.1,0.3-0.2,0.4-0.4c0.1-0.3,0.3-0.7,0.5-1.2h1.1v1.5h1.8V15
			h-1.8v2.7c0,0.6,0.1,1,0.2,1.2c0.1,0.1,0.1,0.2,0.2,0.2s0.2,0,0.3,0s0.2,0,0.3,0s0.2,0,0.3-0.1c0.2-0.1,0.4-0.1,0.5-0.2l0.2,1
			c-0.3,0.3-0.8,0.5-1.3,0.6c-0.2,0-0.5,0.1-0.7,0.1s-0.5,0-0.8-0.1s-0.4-0.2-0.6-0.4c-0.3-0.3-0.4-0.9-0.4-1.6V15z"/>
	</g>
</g>
</svg>
