<?xml version="1.0" encoding="utf-8"?>
<!-- Generator: Adobe Illustrator 22.1.0, SVG Export Plug-In . SVG Version: 6.00 Build 0)  -->
<svg version="1.1" id="Capa_1" xmlns="http://www.w3.org/2000/svg" xmlns:xlink="http://www.w3.org/1999/xlink" x="0px" y="0px"
	 viewBox="0 0 1470 1470" style="enable-background:new 0 0 1470 1470;" xml:space="preserve">
<style type="text/css">
	.st0{fill:#55E0CB;}
</style>
<path id="file-signature-solid" class="st0" d="M714.7,1026.7c-3.1-6.9-10-11.4-17.6-11.3c-7.4-0.1-14.2,4.1-17.4,10.7l-13.3,26.7
	c-6.9,13.7-23.6,19.2-37.3,12.4c-6.6-3.3-11.5-9-13.9-16L586,961.7l-18.4,55.3c-10.2,30.6-38.9,51.3-71.1,51.2H475
	c-15.3,0.4-28-11.8-28.4-27.1s11.8-28,27.1-28.4c0.4,0,0.9,0,1.3,0h21.5c8.4,0,15.8-5.3,18.5-13.3l31.5-94.8
	c7.3-21.8,30.9-33.6,52.7-26.3c12.4,4.1,22.2,13.9,26.3,26.3l24.2,72.2c34.5-25.7,83.3-18.5,108.9,16c2,2.7,3.9,5.6,5.6,8.6
	c3.1,6.2,9.3,10.4,16.2,10.9V869.9l222-220.5v-80.7h-236c-23-0.1-41.6-18.7-41.6-41.6V291.2H377.9c-22.9-0.1-41.6,18.5-41.6,41.4
	c0,0.1,0,0.1,0,0.2v804.8c-0.1,22.9,18.5,41.6,41.4,41.6c0.1,0,0.1,0,0.2,0h582.9c22.9,0.1,41.6-18.5,41.6-41.4c0-0.1,0-0.1,0-0.2
	V1068l-222-0.2C752.5,1067.5,727.1,1051.6,714.7,1026.7z M1002.4,502.4c0-11-4.4-21.5-12.1-29.3l-169.9-170
	c-7.8-7.8-18.4-12.2-29.4-12.1h-10.6v222h222V502.4z M835.8,892.8v119.7h119.7L1236,730.2l-117.8-117.8L835.8,892.8z M1322.4,581.2
	l-55.3-55.3c-17.3-17.2-45.2-17.2-62.5,0l-47.3,47.3L1275.2,691l47.3-47.3C1339.7,626.5,1339.7,598.5,1322.4,581.2
	C1322.4,581.3,1322.4,581.3,1322.4,581.2L1322.4,581.2z"/>
</svg>
