<?xml version="1.0" encoding="utf-8"?>
<!-- Generator: Adobe Illustrator 22.1.0, SVG Export Plug-In . SVG Version: 6.00 Build 0)  -->
<svg version="1.1" id="Capa_1" xmlns="http://www.w3.org/2000/svg" xmlns:xlink="http://www.w3.org/1999/xlink" x="0px" y="0px"
	 viewBox="0 0 166 31.3" style="enable-background:new 0 0 166 31.3;" xml:space="preserve">
<style type="text/css">
	.st0{fill:#FFF8EA;}
	.st1{enable-background:new    ;}
	.st2{fill:#D5A23D;}
</style>
<g id="Group_1475" transform="translate(0.338 0)">
	<path id="Rectangle_1537" class="st0" d="M15.7,0h133.9c8.6,0,15.7,7,15.7,15.7l0,0c0,8.6-7,15.7-15.7,15.7H15.7
		C7,31.3,0,24.3,0,15.7l0,0C0,7,7,0,15.7,0z"/>
	<g class="st1">
		<path class="st2" d="M36.2,16c0-0.7,0.1-1.3,0.3-1.9c0.2-0.6,0.5-1,0.9-1.4c0.8-0.8,1.8-1.2,3.1-1.2c0.7,0,1.4,0.1,2,0.2
			c0.1,0,0.3,0.1,0.4,0.1l-0.3,1.6c-0.3-0.2-0.5-0.3-0.7-0.3c-0.4-0.1-0.8-0.2-1.3-0.2s-0.8,0.1-1.1,0.2s-0.6,0.3-0.8,0.6
			c-0.5,0.5-0.7,1.3-0.7,2.2c0,0.9,0.2,1.7,0.7,2.3c0.5,0.6,1.2,0.9,2,0.9c0.6,0,1.1-0.1,1.7-0.4c0.1-0.1,0.3-0.1,0.3-0.2l0,1.5
			c-0.6,0.2-1,0.4-1.4,0.4s-0.6,0.1-0.9,0.1c-1.4,0-2.4-0.4-3.3-1.2C36.6,18.5,36.2,17.4,36.2,16z"/>
		<path class="st2" d="M44.2,13.8H46v3.9c0,0.6,0.1,1,0.2,1.2c0.1,0.2,0.4,0.3,0.8,0.3c0.3,0,0.6-0.1,0.9-0.3c0.1,0,0.1-0.1,0.2-0.1
			v-5H50v6.8h-1.2c-0.1,0-0.3,0-0.3-0.1s-0.1-0.1-0.1-0.3v-0.3c-0.4,0.3-0.9,0.5-1.4,0.6c-0.2,0-0.3,0-0.5,0c-0.9,0-1.5-0.3-1.8-0.8
			c-0.3-0.4-0.4-1.1-0.4-2.1V13.8z"/>
		<path class="st2" d="M55.2,15.4c-0.6,0-1.1,0.2-1.5,0.7v4.4h-1.8v-6.8h1.6l0.1,1c0.2-0.4,0.7-0.7,1.3-0.9c0.2-0.1,0.4-0.1,0.6-0.1
			s0.4,0,0.5,0v1.9C55.8,15.5,55.5,15.4,55.2,15.4z"/>
		<path class="st2" d="M60.7,15.4c-0.6,0-1.1,0.2-1.5,0.7v4.4h-1.8v-6.8H59l0.1,1c0.2-0.4,0.7-0.7,1.3-0.9c0.2-0.1,0.4-0.1,0.6-0.1
			s0.4,0,0.5,0v1.9C61.2,15.5,61,15.4,60.7,15.4z"/>
		<path class="st2" d="M68,15.1c0.1,0.3,0.2,0.7,0.2,1.3s0,0.9-0.1,1.2h-4c0.1,1.1,0.7,1.6,1.8,1.6c0.4,0,0.8,0,1.1-0.1
			s0.5-0.2,0.6-0.2l0.3,1c-0.4,0.3-0.9,0.5-1.7,0.6c-0.2,0-0.6,0.1-1,0.1s-0.8-0.1-1.2-0.2c-0.4-0.2-0.7-0.4-1-0.7
			c-0.5-0.6-0.8-1.4-0.8-2.5c0-1,0.3-1.8,0.8-2.4c0.6-0.6,1.4-1,2.4-1C66.8,13.8,67.6,14.2,68,15.1z M66.5,16.3c0-0.8-0.3-1.2-1-1.2
			c-0.4,0-0.6,0.1-0.8,0.3c-0.2,0.2-0.4,0.6-0.4,1.2h2.3C66.5,16.5,66.5,16.4,66.5,16.3z"/>
		<path class="st2" d="M69.8,13.8h1.7l0,0.8c0.4-0.3,1-0.5,1.6-0.7c0.2-0.1,0.5-0.1,0.8-0.1s0.5,0,0.8,0.1c0.2,0.1,0.5,0.2,0.6,0.4
			c0.3,0.4,0.5,1.1,0.5,2.1v4.2H74v-3.8c0-0.6-0.1-0.9-0.2-1.1c-0.1-0.2-0.4-0.3-0.7-0.3c-0.3,0-0.7,0.1-1,0.3
			c-0.1,0.1-0.2,0.2-0.3,0.3v4.7h-1.8V13.8z"/>
		<path class="st2" d="M78,15h-0.8v-1c0.4-0.1,0.6-0.2,0.7-0.2c0.2-0.1,0.3-0.2,0.4-0.4c0.1-0.3,0.3-0.7,0.5-1.2h1.1v1.5h1.8V15
			h-1.8v2.7c0,0.6,0.1,1,0.2,1.2c0.1,0.1,0.1,0.2,0.2,0.2s0.2,0,0.3,0s0.2,0,0.3,0s0.2,0,0.3-0.1c0.2-0.1,0.4-0.1,0.5-0.2l0.2,1
			c-0.3,0.3-0.8,0.5-1.3,0.6c-0.2,0-0.5,0.1-0.7,0.1s-0.5,0-0.8-0.1s-0.4-0.2-0.6-0.4c-0.3-0.3-0.4-0.9-0.4-1.6V15z"/>
		<path class="st2" d="M92.6,17c-0.3,0.3-0.7,0.5-1.1,0.6s-0.9,0.2-1.5,0.2s-0.9,0-1.1,0v2.7h-1.9v-9h0.6h2.6c1.6,0,2.6,0.6,3,1.7
			c0.1,0.4,0.2,0.9,0.2,1.4c0,0.5-0.1,1-0.2,1.4C93.2,16.4,92.9,16.7,92.6,17z M91.7,14.6c0-0.6-0.1-1.1-0.4-1.4s-0.7-0.4-1.2-0.4
			s-0.9,0-1.1,0.1v3.4c0.2,0,0.5,0,0.8,0s0.6,0,0.8-0.1s0.4-0.2,0.6-0.3C91.5,15.7,91.7,15.3,91.7,14.6z"/>
		<path class="st2" d="M98.2,15.4c-0.6,0-1.1,0.2-1.5,0.7v4.4h-1.8v-6.8h1.6l0.1,1c0.2-0.4,0.7-0.7,1.3-0.9c0.2-0.1,0.4-0.1,0.6-0.1
			s0.4,0,0.5,0v1.9C98.8,15.5,98.5,15.4,98.2,15.4z"/>
		<path class="st2" d="M100.7,19.5c-0.3-0.3-0.4-0.7-0.5-1.1C100,18,100,17.5,100,17s0.1-1,0.3-1.4c0.2-0.4,0.4-0.8,0.7-1
			c0.6-0.6,1.4-0.8,2.4-0.8c1.1,0,1.9,0.4,2.5,1.1c0.5,0.6,0.7,1.4,0.7,2.4c0,1.1-0.3,1.9-1,2.5c-0.6,0.6-1.4,0.8-2.4,0.8
			C102,20.5,101.2,20.2,100.7,19.5z M103.2,15.1c-0.9,0-1.4,0.7-1.4,2c0,1,0.2,1.7,0.7,2c0.2,0.1,0.4,0.2,0.6,0.2
			c0.9,0,1.3-0.7,1.3-2c0-1-0.2-1.6-0.7-2C103.7,15.1,103.5,15.1,103.2,15.1z"/>
		<path class="st2" d="M106.4,22.2c0.2,0.1,0.4,0.1,0.6,0.1s0.4,0,0.5-0.1s0.2-0.2,0.3-0.3c0.1-0.3,0.2-0.7,0.2-1.4v-6.7h1.8V20
			c0,1.8-0.5,2.9-1.4,3.3c-0.3,0.1-0.6,0.2-1,0.2c-0.2,0-0.4,0-0.6-0.1s-0.4-0.1-0.4-0.1V22.2z M108.9,12.9c-0.2,0-0.3,0-0.4-0.1
			s-0.2-0.1-0.3-0.2c-0.2-0.2-0.3-0.4-0.3-0.7c0-0.3,0.1-0.6,0.4-0.8c0.2-0.2,0.5-0.3,0.8-0.3c0.3,0,0.6,0.1,0.8,0.3
			c0.2,0.2,0.3,0.4,0.3,0.7c0,0.3-0.1,0.6-0.3,0.8C109.5,12.8,109.2,12.9,108.9,12.9z"/>
		<path class="st2" d="M117,15.1c0.1,0.3,0.2,0.7,0.2,1.3s0,0.9-0.1,1.2h-4c0.1,1.1,0.7,1.6,1.8,1.6c0.4,0,0.8,0,1.1-0.1
			s0.5-0.2,0.6-0.2l0.3,1c-0.4,0.3-0.9,0.5-1.7,0.6c-0.2,0-0.6,0.1-1,0.1s-0.8-0.1-1.2-0.2s-0.7-0.4-1-0.7c-0.5-0.6-0.8-1.4-0.8-2.5
			c0-1,0.3-1.8,0.8-2.4c0.6-0.6,1.4-1,2.4-1C115.8,13.8,116.6,14.2,117,15.1z M115.5,16.3c0-0.8-0.3-1.2-1-1.2
			c-0.4,0-0.6,0.1-0.8,0.3c-0.2,0.2-0.4,0.6-0.4,1.2h2.3C115.5,16.5,115.5,16.4,115.5,16.3z"/>
		<path class="st2" d="M123.2,18.8l0.3,1.1c-0.3,0.3-0.8,0.5-1.4,0.6c-0.2,0-0.4,0-0.6,0c-1,0-1.8-0.3-2.3-0.9
			c-0.5-0.6-0.8-1.4-0.8-2.4c0-1,0.3-1.8,0.8-2.5c0.6-0.7,1.4-1,2.5-1c0.6,0,1.1,0.1,1.5,0.2c0.1,0,0.2,0.1,0.2,0.1l-0.2,1.4
			c-0.3-0.2-0.8-0.3-1.3-0.3c-0.7,0-1.2,0.3-1.5,0.9c-0.1,0.2-0.2,0.5-0.2,0.9c0,0.3,0,0.6,0.1,0.9c0.1,0.2,0.2,0.5,0.3,0.6
			c0.3,0.3,0.7,0.5,1.3,0.5S122.9,19,123.2,18.8z"/>
		<path class="st2" d="M125.1,15h-0.8v-1c0.4-0.1,0.6-0.2,0.7-0.2c0.2-0.1,0.3-0.2,0.4-0.4c0.1-0.3,0.3-0.7,0.5-1.2h1.1v1.5h1.8V15
			H127v2.7c0,0.6,0.1,1,0.2,1.2c0.1,0.1,0.1,0.2,0.2,0.2s0.2,0,0.3,0s0.2,0,0.3,0s0.2,0,0.3-0.1c0.2-0.1,0.4-0.1,0.5-0.2l0.2,1
			c-0.3,0.3-0.8,0.5-1.3,0.6c-0.2,0-0.5,0.1-0.7,0.1s-0.5,0-0.8-0.1s-0.4-0.2-0.6-0.4c-0.3-0.3-0.4-0.9-0.4-1.6V15z"/>
	</g>
</g>
</svg>
