<?xml version="1.0" encoding="utf-8"?>
<!-- Generator: Adobe Illustrator 22.1.0, SVG Export Plug-In . SVG Version: 6.00 Build 0)  -->
<svg version="1.1" id="Capa_1" xmlns="http://www.w3.org/2000/svg" xmlns:xlink="http://www.w3.org/1999/xlink" x="0px" y="0px"
	 viewBox="0 0 1470 1470" style="enable-background:new 0 0 1470 1470;" xml:space="preserve">
<style type="text/css">
	.st0{fill:#55E0CB;}
</style>
<g id="Group_1278" transform="translate(147.852 26.915)">
	<g id="Group_1278-2">
		<path id="Path_958" class="st0" d="M520.2,986.6c0.3-5,0.6-9.1,0.6-13.5c0-69.2-0.3-138.4,0.3-207.5c0-11.3-3.2-16-14.8-18.6
			c-56.2-10.3-110.1-30.3-159.4-59.1c-46.6-26.1-78-72.8-84.6-125.8c-13.7-93.2,26.9-186.1,104.7-239.3
			c41.7-30.2,89.8-50.4,140.6-59.1c10.4-1.9,14.1-6,13.5-16.4c-0.6-16.4-0.6-32.4,0-48.7c-1.5-24.7,15.3-46.8,39.5-51.9
			c17.8-3.7,36.2-3.8,54.1-0.3c23.3,4.4,39.6,25.7,37.7,49.4c0.3,21.1,0,41.8,0,64.1c9.7,2.2,19.2,4.1,28.9,6.6
			c71.7,17.6,134.3,50,180.5,109.2c34.6,44.2,52.9,98.9,51.9,155c1.2,38.5-29,70.6-67.5,71.8c-38.5,1.2-70.6-29-71.8-67.5
			c-1.9-67.5-53.8-123.1-121.1-129.5v229.2c27,8.2,54.1,15.1,80.5,24.8c23.1,8.4,45.5,18.2,67.3,29.5
			C944.6,765.8,932.7,930,870.7,1012c-47.2,62.6-112.6,95.3-186.8,112.9c-9.1,2.2-18.6,3.8-27.7,6c-1.3,0.6-2.6,1.3-3.8,2.2v76.1
			c2.9,29.1-18.3,55.1-47.4,58c-0.7,0.1-1.3,0.1-2,0.2c-11.9,1.8-24,1.6-35.8-0.6c-27.2-3.8-47.1-27.6-46.2-55
			c-0.3-13.2,0-26.1,0-39.3v-40.6c-15.4-3.5-30.2-6.3-44.7-10.1c-67-15.2-127-52.4-170.4-105.7c-30-38.9-46.2-86.7-46.2-135.8
			c-1.4-38.8,29-71.3,67.7-72.6c37.9-1.3,69.9,27.6,72.5,65.4C406.4,936.6,452.3,980.9,520.2,986.6z M652.9,988.2
			c39.3-9.1,75.2-22.3,100.9-54.1c22.3-27.7,27.4-70.1,9.7-95.3c-26.4-38-69.5-45.6-110.7-58.5L652.9,988.2z M519.9,609V404.6
			c-28.1,6.2-54.4,18.7-77,36.5c-21.5,17.1-36.1,41.5-41.1,68.5c-6.6,34.9,1.6,54.4,34,68.9C462,590.2,490.3,598.3,519.9,609
			L519.9,609z"/>
	</g>
</g>
</svg>
