<?xml version="1.0" encoding="utf-8"?>
<!-- Generator: Adobe Illustrator 22.1.0, SVG Export Plug-In . SVG Version: 6.00 Build 0)  -->
<svg version="1.1" id="Capa_1" xmlns="http://www.w3.org/2000/svg" xmlns:xlink="http://www.w3.org/1999/xlink" x="0px" y="0px"
	 viewBox="0 0 1470 1470" style="enable-background:new 0 0 1470 1470;" xml:space="preserve">
<style type="text/css">
	.st0{fill:#6F7F91;}
</style>
<g id="Group_1277" transform="translate(-3 11)">
	<g id="Group_1275" transform="translate(66.902 152.847)">
		<g id="Group_1154" transform="translate(0 34.428)">
			<path id="Path_918" class="st0" d="M265.5,961.1c0-81.9,62.2-143.1,147.2-143.1c82.9,0,146.2,61.2,146.2,143.1
				s-63.2,143.1-146.2,143.1C327.7,1105.2,265.5,1044.1,265.5,961.1z M502.9,961.1c0-57-36.3-100.6-90.2-100.6
				c-57,0-91.2,44.6-91.2,100.6c0,57,35.3,99.5,91.2,99.5C467.6,1061.7,502.9,1017.1,502.9,961.1z"/>
			<path id="Path_919" class="st0" d="M771.4,923.8v78.8h-41.5v-32.1c-14.5,0-35.3,13.5-57,36.3v61.2h38.4v37.3H588.9V1068h37.3
				V965.3h-37.3v-41.5l85,1l-1,44.6c24.9-27,53.9-45.6,79.8-45.6H771.4z"/>
			<path id="Path_920" class="st0" d="M927.9,1066.9v38.4H802.5v-38.4h38.4V962.2h-38.4v-38.4h86v143.1H927.9z M828.4,863.7
				c0-15.6,14.5-27,33.2-27c19.7,0,34.2,11.4,34.2,27c0,14.5-13.5,27-34.2,27C842.9,889.6,828.4,878.2,828.4,863.7z"/>
		</g>
	</g>
</g>
</svg>
