<svg xmlns="http://www.w3.org/2000/svg" width="38.796" height="27.157" viewBox="0 0 38.796 27.157">
  <path id="ic_supervisor_account_24px" d="M30.127,18.579a4.849,4.849,0,1,0-4.85-4.849A4.835,4.835,0,0,0,30.127,18.579Zm-14.548-1.94a5.819,5.819,0,1,0-5.819-5.819A5.8,5.8,0,0,0,15.579,16.639Zm14.548,5.819c-3.55,0-10.669,1.785-10.669,5.334v4.365H40.8V27.793C40.8,24.243,33.677,22.458,30.127,22.458Zm-14.548-1.94C11.059,20.518,2,22.788,2,27.308v4.85H15.579V27.793c0-1.649.64-4.539,4.6-6.731A23.827,23.827,0,0,0,15.579,20.518Z" transform="translate(-2 -5)" fill="#fff"/>
</svg>
