<svg xmlns="http://www.w3.org/2000/svg" width="120.215" height="52.112" viewBox="0 0 120.215 52.112">
  <g id="Group_1275" data-name="Group 1275" transform="translate(0 -34.428)">
    <g id="Group_1154" data-name="Group 1154" transform="translate(0 34.428)">
      <path id="Path_918" data-name="Path 918" d="M0,44.262C0,29.4,11.288,18.3,26.715,18.3c15.05,0,26.526,11.1,26.526,25.962S41.765,70.224,26.715,70.224C11.288,70.412,0,59.312,0,44.262Zm43.082,0c0-10.347-6.585-18.249-16.367-18.249-10.347,0-16.555,8.09-16.555,18.249,0,10.347,6.4,18.061,16.555,18.061C36.685,62.511,43.082,54.421,43.082,44.262Z" transform="translate(0 -18.3)" fill="#6f7f91"/>
      <path id="Path_919" data-name="Path 919" d="M64.311,28.5V42.8H56.786V36.966c-2.634,0-6.4,2.446-10.347,6.585v11.1H53.4v6.773H31.2V54.65h6.773V36.025H31.2V28.5l15.427.188-.188,8.09c4.515-4.891,9.783-8.278,14.486-8.278Z" transform="translate(27.497 -9.311)" fill="#6f7f91"/>
      <path id="Path_920" data-name="Path 920" d="M74.564,61.865v6.961H51.8V61.865h6.961v-19H51.8V35.9H67.415V61.865ZM56.5,24.991c0-2.822,2.634-4.891,6.02-4.891,3.574,0,6.208,2.069,6.208,4.891,0,2.634-2.446,4.891-6.208,4.891C59.137,29.695,56.5,27.625,56.5,24.991Z" transform="translate(45.652 -16.714)" fill="#6f7f91"/>
    </g>
  </g>
</svg>
