<svg xmlns="http://www.w3.org/2000/svg" width="165.196" height="31.302" viewBox="0 0 165.196 31.302">
  <g id="Group_1477" data-name="Group 1477" transform="translate(0 0)">
    <g id="Group_1373" data-name="Group 1373">
      <g id="Group_1371" data-name="Group 1371">
        <rect id="Rectangle_1537" data-name="Rectangle 1537" width="165.196" height="31.302" rx="15.651" fill="#bafff6"/>
        <g id="Group_1330" data-name="Group 1330" transform="translate(1.897 8.537)">
          <text id="Paid" transform="translate(0)" fill="#71a29a" font-size="12" font-family="MerriweatherSans-Bold, Merriweather Sans" font-weight="700"><tspan x="66.806" y="12">Paid</tspan></text>
        </g>
      </g>
    </g>
    <g id="Group_1372" data-name="Group 1372" transform="translate(26.132 8.312)">
      <g id="Group_1367" data-name="Group 1367" transform="translate(0)">
        <g id="Group_1370" data-name="Group 1370">
          <g id="Group_1369" data-name="Group 1369">
            <g id="Group_1336" data-name="Group 1336">
              <g id="Group_1278" data-name="Group 1278">
                <path id="Path_958" data-name="Path 958" d="M153.874,78.99c0-.071.009-.129.009-.191,0-.977,0-1.954,0-2.931,0-.16-.044-.226-.209-.262a6.927,6.927,0,0,1-2.252-.835,2.374,2.374,0,0,1-1.195-1.776,3.482,3.482,0,0,1,1.479-3.38,4.771,4.771,0,0,1,1.985-.835c.147-.027.2-.084.191-.231-.009-.231-.009-.457,0-.688a.706.706,0,0,1,.56-.733,1.923,1.923,0,0,1,.764,0,.658.658,0,0,1,.533.7c0,.3,0,.591,0,.906.138.031.271.058.409.093a4.429,4.429,0,0,1,2.549,1.541,3.447,3.447,0,0,1,.733,2.189.984.984,0,0,1-1.967.062,1.891,1.891,0,0,0-1.71-1.83V74.02c.382.115.764.213,1.137.351a7.9,7.9,0,0,1,.95.417,3.067,3.067,0,0,1,.982,4.561,4.413,4.413,0,0,1-2.638,1.594c-.129.031-.262.053-.391.084a.253.253,0,0,0-.053.031v1.075a.748.748,0,0,1-.7.822,1.491,1.491,0,0,1-.506-.009.759.759,0,0,1-.653-.777c0-.187,0-.369,0-.555v-.573c-.218-.049-.426-.089-.631-.142a4.347,4.347,0,0,1-2.407-1.492,3.149,3.149,0,0,1-.653-1.919.992.992,0,0,1,1.981-.1A1.747,1.747,0,0,0,153.874,78.99Zm1.874.022a2.413,2.413,0,0,0,1.426-.764,1.2,1.2,0,0,0,.138-1.346,2.609,2.609,0,0,0-1.563-.826Zm-1.879-5.356V70.769a2.712,2.712,0,0,0-1.088.515,1.611,1.611,0,0,0-.582.968.747.747,0,0,0,.48.973C153.053,73.39,153.452,73.505,153.87,73.656Z" transform="translate(-150.197 -67.087)" fill="#71a29a"/>
              </g>
            </g>
          </g>
        </g>
      </g>
    </g>
  </g>
</svg>
