<?xml version="1.0" encoding="utf-8"?>
<!-- Generator: Adobe Illustrator 22.1.0, SVG Export Plug-In . SVG Version: 6.00 Build 0)  -->
<svg version="1.1" id="Capa_1" xmlns="http://www.w3.org/2000/svg" xmlns:xlink="http://www.w3.org/1999/xlink" x="0px" y="0px"
	 viewBox="0 0 1470 1470" style="enable-background:new 0 0 1470 1470;" xml:space="preserve">
<style type="text/css">
	.st0{fill:#FFFFFF;}
</style>
<g>
	<path id="Path_877" class="st0" d="M945.3,735.6l0,201.7c2.5,18.3-10.4,35.2-28.7,37.7c-2.9,0.4-5.9,0.4-8.8,0
		c-27.9,0-56,0.2-83.9,0c-18,1.8-34-11.4-35.8-29.4c-0.2-2.2-0.2-4.4,0-6.6l0-407.8c-1.6-18.4,12-34.6,30.4-36.2
		c1.9-0.2,3.8-0.2,5.6,0c28.3-0.2,56.7,0,85,0c18.3-1.8,34.6,11.6,36.4,29.9c0.2,2.2,0.2,4.5,0,6.7
		C945.3,599.5,945.2,667.5,945.3,735.6L945.3,735.6z"/>
	<path id="Path_878" class="st0" d="M681.9,735.8l0,200.4c0,26.6-12,38.4-38.5,38.5l-82.9,0c-18.1,1.8-34.2-11.4-36-29.4
		c-0.2-2.1-0.2-4.2,0-6.3l0-407.5c-1.8-18.5,11.8-34.9,30.3-36.6c2.1-0.2,4.2-0.2,6.3,0l83.9,0c18.3-2.1,34.8,11.1,36.9,29.4
		c0.3,2.6,0.3,5.3,0,7.9L681.9,735.8L681.9,735.8z"/>
</g>
</svg>
