<svg xmlns="http://www.w3.org/2000/svg" width="37.986" height="37.986" viewBox="0 0 37.986 37.986">
  <path id="ic_call_24px" d="M10.639,19.44A31.969,31.969,0,0,0,24.547,33.347L29.189,28.7a2.1,2.1,0,0,1,2.153-.506,24.073,24.073,0,0,0,7.534,1.2,2.117,2.117,0,0,1,2.11,2.11v7.365a2.117,2.117,0,0,1-2.11,2.11A35.873,35.873,0,0,1,3,5.11,2.117,2.117,0,0,1,5.11,3H12.5a2.117,2.117,0,0,1,2.11,2.11,23.974,23.974,0,0,0,1.2,7.534,2.118,2.118,0,0,1-.528,2.153Z" transform="translate(-3 -3)" fill="#75e5d4"/>
</svg>
