<?xml version="1.0" encoding="utf-8"?>
<!-- Generator: Adobe Illustrator 22.1.0, SVG Export Plug-In . SVG Version: 6.00 Build 0)  -->
<svg version="1.1" id="Capa_1" xmlns="http://www.w3.org/2000/svg" xmlns:xlink="http://www.w3.org/1999/xlink" x="0px" y="0px"
	 viewBox="0 0 38 38" style="enable-background:new 0 0 38 38;" xml:space="preserve">
<style type="text/css">
	.st0{fill:#FFFFFF;}
</style>
<path id="ic_call_24px" class="st0" d="M7.6,16.4c3.1,6,7.9,10.8,13.9,13.9l4.6-4.6c0.6-0.6,1.4-0.8,2.2-0.5c2.4,0.8,5,1.2,7.5,1.2
	c1.2,0,2.1,0.9,2.1,2.1v7.4C38,37,37,38,35.9,38C16.1,38,0,21.9,0,2.1C0,0.9,0.9,0,2.1,0h7.4c1.2,0,2.1,0.9,2.1,2.1
	c0,2.6,0.4,5.1,1.2,7.5c0.2,0.8,0,1.6-0.5,2.2L7.6,16.4z"/>
</svg>
