<?xml version="1.0" encoding="utf-8"?>
<!-- Generator: Adobe Illustrator 22.1.0, SVG Export Plug-In . SVG Version: 6.00 Build 0)  -->
<svg version="1.1" id="Capa_1" xmlns="http://www.w3.org/2000/svg" xmlns:xlink="http://www.w3.org/1999/xlink" x="0px" y="0px"
	 viewBox="0 0 1470 1470" style="enable-background:new 0 0 1470 1470;" xml:space="preserve">
<style type="text/css">
	.st0{fill:#FFFFFF;}
</style>
<path id="Path_876" class="st0" d="M506.8,734.4l0-222.2c-1.6-18.2,11.8-34.2,30-35.8c3.1-0.3,6.2-0.1,9.3,0.5
	c4.9,1.1,9.6,3.1,14,5.7C688,556.3,815.9,630,943.8,703.7c16.8,7.7,24.3,27.5,16.6,44.4c-3.4,7.4-9.4,13.4-16.8,16.7L558.2,987.8
	c-14.9,10.3-35.4,6.6-45.8-8.3c-4.4-6.3-6.4-13.9-5.7-21.5C506.8,883.4,506.8,808.9,506.8,734.4z"/>
</svg>
