<?xml version="1.0" encoding="utf-8"?>
<!-- Generator: Adobe Illustrator 22.1.0, SVG Export Plug-In . SVG Version: 6.00 Build 0)  -->
<svg version="1.1" id="Capa_1" xmlns="http://www.w3.org/2000/svg" xmlns:xlink="http://www.w3.org/1999/xlink" x="0px" y="0px"
	 viewBox="0 0 1470 1470" style="enable-background:new 0 0 1470 1470;" xml:space="preserve">
<style type="text/css">
	.st0{fill:#55E0CB;}
	.st1{fill:#FFFFFF;stroke:#FFFFFF;}
</style>
<g id="Group_1220" transform="translate(141.129 52.978)">
	<path id="ic_folder_24px-3" class="st0" d="M484.3,232.3H147c-61.9,0.2-112,50.5-111.9,112.4l-0.6,674.6
		c0.2,62,50.4,112.2,112.4,112.4h899.4c62-0.2,112.2-50.4,112.4-112.4V457.1c-0.2-62-50.4-112.2-112.4-112.4H596.8L484.3,232.3z"/>
</g>
<g id="Group_1214" transform="translate(86.073)">
	<path id="ic_folder_24px-2" class="st0" d="M535.3,280.6l-340.7,0c-62.5,0.2-113.1,51-113,113.6L81,1075.8
		c0.2,62.7,50.9,113.4,113.6,113.6l908.7,0c62.7-0.2,113.4-50.9,113.6-113.6v-568c-0.2-62.7-50.9-113.4-113.6-113.6l-454.3,0
		L535.3,280.6z"/>
	<g id="group-14" transform="translate(20.595 16.155)">
		<rect id="rectangle-2" x="602.6" y="543.4" class="st1" width="44.6" height="429.1"/>
		<rect id="rectangle-2-2" x="415.9" y="735.7" class="st1" width="429.1" height="44.6"/>
	</g>
</g>
</svg>
