<?xml version="1.0" encoding="utf-8"?>
<!-- Generator: Adobe Illustrator 22.1.0, SVG Export Plug-In . SVG Version: 6.00 Build 0)  -->
<svg version="1.1" id="Capa_1" xmlns="http://www.w3.org/2000/svg" xmlns:xlink="http://www.w3.org/1999/xlink" x="0px" y="0px"
	 viewBox="0 0 1470 1470" style="enable-background:new 0 0 1470 1470;" xml:space="preserve">
<style type="text/css">
	.st0{fill:#55E0CB;}
	.st1{fill:#FFFFFF;}
	.st2{fill:#FFFFFF;stroke:#55E0CB;stroke-width:10;stroke-miterlimit:10;}
</style>
<polygon class="st0" points="808,196 418.1,220 308,364 332,1164 464,1248 1060.2,1248 1152,1160 1152,493.5 "/>
<path class="st0" d="M483.5,1290.9c-1.4,0-2.7-0.1-4.1-0.2c-52.9-6.4-124.5-26.6-164.7-86.1c-24.7-36.5-25.7-70.7-25.7-75.7
	L285,486.9c-18.1-141.4,22.6-217,60-255.6c42.5-43.8,89.8-51.2,95.1-51.9c1.5-0.2,3-0.3,4.5-0.3h407c8.8,0,17.3,3.4,23.7,9.5
	l298.6,287.1c6.5,6.3,10.3,14.8,10.5,23.8c0.5,21.8,11.5,534.3-0.2,630.4c-11,89.8-65.8,127.4-109.9,143.1
	c-40.2,14.3-77.3,12.7-87.4,11.9l-502.9,5.8C483.7,1290.9,483.6,1290.9,483.5,1290.9z M357.2,1128.3c0.1,1.6,1.1,20.4,16,40.8
	c20.7,28.2,59.5,46.7,112.2,53.5l502.3-5.8c1.3,0,2.7,0,4,0.2c0.1,0,30.7,2.8,61.4-8.7c37.2-13.9,57.9-42.2,63.3-86.5
	c10.1-82.7,1.8-521.9,0-606.5L837.9,247.4H447.7c-7.1,1.5-32.9,8.7-56.3,34.2c-37,40.4-50.3,109.1-38.5,198.6
	c0.2,1.4,0.3,2.8,0.3,4.3L357.2,1128.3z M357.2,1128.6C357.2,1128.6,357.2,1128.6,357.2,1128.6
	C357.2,1128.6,357.2,1128.6,357.2,1128.6z"/>
<path class="st1" d="M1026.1,1082.3H452.2c-18.8,0-34.1-15.3-34.1-34.1s15.3-34.1,34.1-34.1h573.9c18.8,0,34.1,15.3,34.1,34.1
	S1044.9,1082.3,1026.1,1082.3z"/>
<path class="st1" d="M1026.1,894.7H452.2c-18.8,0-34.1-15.3-34.1-34.1c0-18.8,15.3-34.1,34.1-34.1h573.9c18.8,0,34.1,15.3,34.1,34.1
	C1060.2,879.4,1044.9,894.7,1026.1,894.7z"/>
<path class="st1" d="M1026.1,679.7H769.6c-18.8,0-34.1-15.3-34.1-34.1s15.3-34.1,34.1-34.1h256.5c18.8,0,34.1,15.3,34.1,34.1
	S1044.9,679.7,1026.1,679.7z"/>
<g id="Group_1278" transform="translate(147.852 26.915)">
	<g id="Group_1278-2">
		<path id="Path_958" class="st2" d="M376.7,642.9c0.1-1.5,0.2-2.8,0.2-4.1c0-21-0.1-41.9,0.1-62.9c0-3.4-1-4.8-4.5-5.6
			c-17-3.1-33.3-9.2-48.3-17.9c-14.1-7.9-23.6-22.1-25.6-38.1c-4.1-28.2,8.1-56.4,31.7-72.5c12.6-9.1,27.2-15.3,42.6-17.9
			c3.2-0.6,4.3-1.8,4.1-5c-0.2-5-0.2-9.8,0-14.8c-0.5-7.5,4.6-14.2,12-15.7c5.4-1.1,11-1.2,16.4-0.1c7.1,1.3,12,7.8,11.4,15
			c0.1,6.4,0,12.7,0,19.4c2.9,0.7,5.8,1.2,8.8,2c21.7,5.3,40.7,15.1,54.7,33.1c10.5,13.4,16,30,15.7,46.9
			c0.4,11.7-8.8,21.4-20.4,21.7c-11.7,0.4-21.4-8.8-21.7-20.4c-0.6-20.4-16.3-37.3-36.7-39.2v69.4c8.2,2.5,16.4,4.6,24.4,7.5
			c7,2.5,13.8,5.5,20.4,8.9c43.5,23.3,39.9,73,21.1,97.8c-14.3,19-34.1,28.9-56.6,34.2c-2.8,0.7-5.6,1.2-8.4,1.8
			c-0.4,0.2-0.8,0.4-1.2,0.7v23.1c0.9,8.8-5.5,16.7-14.4,17.6c-0.2,0-0.4,0-0.6,0.1c-3.6,0.5-7.3,0.5-10.8-0.2
			c-8.2-1.2-14.3-8.4-14-16.7c-0.1-4,0-7.9,0-11.9v-12.3c-4.7-1.1-9.1-1.9-13.5-3.1c-20.3-4.6-38.5-15.9-51.6-32
			c-9.1-11.8-14-26.3-14-41.1c-0.4-11.8,8.8-21.6,20.5-22c11.5-0.4,21.2,8.4,22,19.8C342.2,627.7,356.1,641.1,376.7,642.9z
			 M416.9,643.4c11.9-2.8,22.8-6.8,30.6-16.4c6.8-8.4,8.3-21.2,2.9-28.9c-8-11.5-21.1-13.8-33.5-17.7L416.9,643.4z M376.6,528.5
			v-61.9c-8.5,1.9-16.5,5.7-23.3,11.1c-6.5,5.2-10.9,12.6-12.4,20.7c-2,10.6,0.5,16.5,10.3,20.9
			C359.1,522.8,367.7,525.3,376.6,528.5L376.6,528.5z"/>
	</g>
</g>
</svg>
