<?xml version="1.0" encoding="utf-8"?>
<!-- Generator: Adobe Illustrator 22.1.0, SVG Export Plug-In . SVG Version: 6.00 Build 0)  -->
<svg version="1.1" id="Capa_1" xmlns="http://www.w3.org/2000/svg" xmlns:xlink="http://www.w3.org/1999/xlink" x="0px" y="0px"
	 viewBox="0 0 1470 1470" style="enable-background:new 0 0 1470 1470;" xml:space="preserve">
<style type="text/css">
	.st0{fill:#55E0CB;}
</style>
<path id="ic_timer_24px" class="st0" d="M896.1,170.4H573.6v107.5h322.5V170.4z M681.2,869.1h107.5V546.6H681.2V869.1z
	 M1112.9,513.8l76.3-76.3c-22.9-27.5-48.3-52.9-75.8-75.8l-76.3,76.3C828.4,271.2,524,305.2,357.2,513.8s-132.9,513.1,75.8,679.9
	s513.1,132.9,679.9-75.8C1254,941.3,1254,690.5,1112.9,513.8z M734.9,1191.6c-207.8,0-376.3-168.5-376.3-376.3
	c0-207.8,168.5-376.3,376.3-376.3s376.3,168.5,376.3,376.3c0,0,0,0,0,0c0.1,207.7-168.1,376.1-375.7,376.2
	C735.2,1191.6,735,1191.6,734.9,1191.6z"/>
</svg>
