<?xml version="1.0" encoding="utf-8"?>
<!-- Generator: Adobe Illustrator 22.1.0, SVG Export Plug-In . SVG Version: 6.00 Build 0)  -->
<svg version="1.1" id="Capa_1" xmlns="http://www.w3.org/2000/svg" xmlns:xlink="http://www.w3.org/1999/xlink" x="0px" y="0px"
	 viewBox="0 0 165.2 31.3" style="enable-background:new 0 0 165.2 31.3;" xml:space="preserve">
<style type="text/css">
	.st0{fill:#FFF8EA;}
	.st1{enable-background:new    ;}
	.st2{fill:#D5A23D;}
</style>
<g id="Group_1474" transform="translate(0 0)">
	<g id="Group_1373">
		<g id="Group_1371">
			<path id="Rectangle_1537" class="st0" d="M15.7,0h133.9c8.6,0,15.7,7,15.7,15.7l0,0c0,8.6-7,15.7-15.7,15.7H15.7
				C7,31.3,0,24.3,0,15.7l0,0C0,7,7,0,15.7,0z"/>
			<g id="Group_1330" transform="translate(1.897 8.537)">
				<g class="st1">
					<path class="st2" d="M61.8,8.4c-0.3,0.3-0.7,0.5-1.1,0.6s-0.9,0.2-1.5,0.2s-0.9,0-1.1,0V12h-1.9V3h0.6h2.6c1.6,0,2.6,0.6,3,1.7
						C62.6,5,62.7,5.5,62.7,6c0,0.5-0.1,1-0.2,1.4C62.3,7.8,62.1,8.2,61.8,8.4z M60.9,6.1c0-0.6-0.1-1.1-0.4-1.4s-0.7-0.4-1.2-0.4
						s-0.9,0-1.1,0.1v3.4c0.2,0,0.5,0,0.8,0s0.6,0,0.8-0.1s0.4-0.2,0.6-0.3C60.7,7.2,60.9,6.7,60.9,6.1z"/>
					<path class="st2" d="M69.3,6.6c0.1,0.3,0.2,0.7,0.2,1.3s0,0.9-0.1,1.2h-4c0.1,1.1,0.7,1.6,1.8,1.6c0.4,0,0.8,0,1.1-0.1
						s0.5-0.2,0.6-0.2l0.3,1c-0.4,0.3-0.9,0.5-1.7,0.6c-0.2,0-0.6,0.1-1,0.1s-0.8-0.1-1.2-0.2s-0.7-0.4-1-0.7
						c-0.5-0.6-0.8-1.4-0.8-2.5c0-1,0.3-1.8,0.8-2.4c0.6-0.6,1.4-1,2.4-1C68.1,5.2,68.9,5.7,69.3,6.6z M67.8,7.8
						c0-0.8-0.3-1.2-1-1.2c-0.4,0-0.6,0.1-0.8,0.3c-0.2,0.2-0.4,0.6-0.4,1.2h2.3C67.8,7.9,67.8,7.8,67.8,7.8z"/>
					<path class="st2" d="M71.1,5.2h1.7l0,0.8c0.4-0.3,1-0.5,1.6-0.7c0.2-0.1,0.5-0.1,0.8-0.1s0.5,0,0.8,0.1
						c0.2,0.1,0.5,0.2,0.6,0.4c0.3,0.4,0.5,1.1,0.5,2.1V12h-1.8V8.2c0-0.6-0.1-0.9-0.2-1.1c-0.1-0.2-0.4-0.3-0.7-0.3
						c-0.3,0-0.7,0.1-1,0.3c-0.1,0.1-0.2,0.2-0.3,0.3V12h-1.8V5.2z"/>
					<path class="st2" d="M83.2,11.2c-0.5,0.5-1.2,0.8-2,0.8c-0.8,0-1.4-0.3-1.9-0.8c-0.5-0.6-0.8-1.4-0.8-2.4c0-1.1,0.3-2,0.9-2.6
						c0.6-0.7,1.4-1,2.5-1c0.4,0,0.8,0.1,1.1,0.2l0-0.6V2.3h1.8V12h-1.2c-0.1,0-0.2,0-0.3-0.1s-0.1-0.1-0.1-0.3V11.2z M83,6.8
						c-0.2-0.2-0.5-0.2-0.8-0.2c-0.4,0-0.6,0-0.8,0.1s-0.3,0.2-0.5,0.4c-0.3,0.4-0.4,1-0.4,1.7c0,1,0.3,1.6,0.8,1.7
						c0.2,0.1,0.3,0.1,0.5,0.1c0.5,0,0.9-0.1,1.3-0.3V6.8z"/>
					<path class="st2" d="M87.8,4.4c-0.2,0-0.3,0-0.4-0.1S87.1,4.2,87,4.1c-0.2-0.2-0.3-0.4-0.3-0.7c0-0.3,0.1-0.6,0.4-0.8
						c0.2-0.2,0.5-0.3,0.8-0.3c0.3,0,0.6,0.1,0.8,0.3c0.2,0.2,0.3,0.4,0.3,0.7c0,0.3-0.1,0.6-0.3,0.8C88.4,4.3,88.1,4.4,87.8,4.4z
						 M86.9,5.2h1.8V12h-1.8V5.2z"/>
					<path class="st2" d="M90.7,5.2h1.7l0,0.8c0.4-0.3,1-0.5,1.6-0.7c0.2-0.1,0.5-0.1,0.8-0.1s0.5,0,0.8,0.1
						c0.2,0.1,0.5,0.2,0.6,0.4c0.3,0.4,0.5,1.1,0.5,2.1V12h-1.8V8.2c0-0.6-0.1-0.9-0.2-1.1c-0.1-0.2-0.4-0.3-0.7-0.3
						c-0.3,0-0.7,0.1-1,0.3c-0.1,0.1-0.2,0.2-0.3,0.3V12h-1.8V5.2z"/>
					<path class="st2" d="M100.6,9.5c-0.2,0.1-0.2,0.3-0.2,0.6c0,0.3,0.1,0.4,0.4,0.5c0.1,0,0.2,0,0.4,0h1.1c1,0,1.7,0.2,2.1,0.6
						c0.3,0.3,0.5,0.8,0.5,1.4c0,0.7-0.4,1.3-1.1,1.8c-0.7,0.4-1.4,0.6-2.3,0.6c0,0-0.2,0-0.4,0s-0.6,0-1-0.1s-0.7-0.2-1-0.4
						c-0.6-0.3-0.8-0.8-0.8-1.4c0-0.5,0.2-0.8,0.6-1.1c0.1-0.1,0.3-0.2,0.4-0.2c-0.4-0.2-0.5-0.5-0.5-1c0-0.6,0.4-1.1,1.1-1.4
						c-0.4-0.2-0.8-0.4-1-0.7s-0.4-0.7-0.4-1.1c0-1.5,1-2.2,3-2.2c0.9,0,1.5,0.2,2,0.5c0.3-0.3,0.6-0.5,1.1-0.5h0.7v1.4h-1.1
						c0.1,0.2,0.1,0.5,0.1,0.8s-0.1,0.6-0.2,0.9s-0.3,0.5-0.6,0.7c-0.5,0.4-1.2,0.5-2.2,0.5C101,9.6,100.8,9.5,100.6,9.5z M100.2,12
						c-0.2,0.2-0.2,0.3-0.2,0.6c0,0.2,0,0.4,0.1,0.6s0.1,0.3,0.2,0.4c0.2,0.3,0.6,0.4,1.1,0.4c1.1,0,1.6-0.3,1.6-1
						c0-0.3-0.1-0.6-0.3-0.7c-0.2-0.2-0.6-0.2-1.3-0.2h-1C100.5,12,100.4,12,100.2,12z M102.5,7.4c0-0.7-0.4-1.1-1.2-1.1
						s-1.2,0.4-1.2,1.1c0,0.3,0.1,0.6,0.3,0.7c0.2,0.2,0.5,0.3,0.8,0.3c0.4,0,0.7,0,0.8-0.1C102.3,8.1,102.5,7.8,102.5,7.4z"/>
				</g>
			</g>
		</g>
	</g>
	<g id="Group_1473">
		<g id="Group_1372" transform="translate(26.132 8.312)">
			<g id="Group_1367" transform="translate(0)">
				<g id="Group_1370">
					<g id="Group_1369">
						<g id="Group_1336">
							<g id="Group_1278">
								<path id="Path_958" class="st2" d="M3.7,11.9c0-0.1,0-0.1,0-0.2c0-1,0-2,0-2.9c0-0.2,0-0.2-0.2-0.3C2.7,8.4,1.9,8.1,1.2,7.7
									C0.6,7.3,0.1,6.7,0,5.9c-0.2-1.3,0.4-2.6,1.5-3.4c0.6-0.4,1.3-0.7,2-0.8c0.1,0,0.2-0.1,0.2-0.2c0-0.2,0-0.5,0-0.7
									c0-0.3,0.2-0.7,0.6-0.7C4.5,0,4.8,0,5,0c0.3,0.1,0.6,0.4,0.5,0.7c0,0.3,0,0.6,0,0.9c0.1,0,0.3,0.1,0.4,0.1
									c1,0.2,1.9,0.7,2.5,1.5C9,3.9,9.2,4.7,9.2,5.5c0,0.5-0.4,1-1,1c-0.5,0-1-0.4-1-0.9c0-1-0.8-1.7-1.7-1.8v3.2
									C5.9,7,6.3,7.1,6.7,7.3C7,7.4,7.3,7.5,7.6,7.7c1.5,0.8,2,2.7,1.2,4.2c-0.1,0.1-0.2,0.3-0.3,0.4C8,13.1,7,13.7,6,13.9
									c-0.1,0-0.3,0.1-0.4,0.1c0,0,0,0-0.1,0V15c0,0.4-0.3,0.8-0.7,0.8c0,0,0,0,0,0c-0.2,0-0.3,0-0.5,0c-0.4-0.1-0.7-0.4-0.7-0.8
									c0-0.2,0-0.4,0-0.6V14c-0.2,0-0.4-0.1-0.6-0.1c-0.9-0.2-1.8-0.7-2.4-1.5C0.2,11.8,0,11.1,0,10.4c0-0.5,0.4-1,1-1
									c0.5,0,1,0.4,1,0.9C2,11.2,2.8,11.9,3.7,11.9z M5.6,11.9c0.5-0.1,1.1-0.4,1.4-0.8c0.3-0.4,0.4-0.9,0.1-1.3
									C6.7,9.4,6.2,9.1,5.6,9L5.6,11.9z M3.7,6.6V3.7C3.3,3.8,2.9,3.9,2.6,4.2C2.3,4.4,2.1,4.8,2,5.2C1.9,5.6,2.1,6,2.4,6.1
									c0,0,0,0,0,0C2.9,6.3,3.3,6.4,3.7,6.6L3.7,6.6z"/>
							</g>
						</g>
					</g>
				</g>
			</g>
		</g>
	</g>
</g>
</svg>
