<?xml version="1.0" encoding="utf-8"?>
<!-- Generator: Adobe Illustrator 22.1.0, SVG Export Plug-In . SVG Version: 6.00 Build 0)  -->
<svg version="1.1" id="Capa_1" xmlns="http://www.w3.org/2000/svg" xmlns:xlink="http://www.w3.org/1999/xlink" x="0px" y="0px"
	 viewBox="0 0 1112 1124" style="enable-background:new 0 0 1112 1124;" xml:space="preserve">
<style type="text/css">
	.st0{fill:#FFE7BD;}
</style>
<path class="st0" d="M1043.1,509.7c-8.7-82.1-36.1-157.5-83.3-225.1C885.3,177.8,784,110.1,656.6,82.6c-23.8-5.1-48.4-6.6-72.7-9.7
	c-2-0.3-3.9-0.6-5.9-0.9c-14.7,0-29.3,0-44,0c-10.3,1-20.5,1.8-30.8,2.9c-56.3,5.9-110.1,21-160.9,46.1
	c-105,51.8-182.4,130.8-231.9,236.9c-24,51.4-38,105.7-42.6,162.3c-0.5,6.6-1.2,13.2-1.8,19.8c0,14.7,0,29.3,0,44
	c1,10.2,1.8,20.5,2.9,30.7c8.2,77,33.2,148.2,75.4,213c59.5,91.2,140.5,156,242.5,194.2c45.4,17,92.4,26.5,140.8,29.2
	c2.1,0.1,4.2,0.6,6.4,0.9c14.7,0,29.3,0,44,0c10.1-1,20.2-1.8,30.3-2.9c73.7-7.7,142.4-30.7,205-70.2
	c114.9-72.4,188.4-175,220.3-307.1c6.5-26.9,10.2-54.3,11.6-82c0.1-2,0.6-3.9,0.9-5.9c0-14.7,0-29.3,0-44
	C1045.1,529.9,1044.2,519.8,1043.1,509.7z M555.9,240.3c75.6-0.2,137.8,61.9,138,137.6c0.2,75.7-61.7,137.8-137.5,138
	c-75.9,0.2-138.2-61.9-138.2-137.8C418.1,302.5,480.1,240.5,555.9,240.3z M829.1,758.5c-51.5,70.2-119.6,115.1-204.8,133.4
	c-22.5,4.9-45.4,6.9-68.6,7.3c-113-3.1-204.1-49-272.1-139.8c-1.5-2.1-2.2-5.5-1.8-8.1c3.1-21.4,15-37.8,30.7-51.7
	c21.7-19.4,47.1-32.4,74-42.7c53.8-20.7,109.4-32.8,167.1-33.4c52.6-0.6,103.6,9.9,153.3,26.5c29,9.7,56.8,22,81.5,40.4
	c13,9.6,25,20.4,32.4,34.8c4.4,8.6,6.8,18.2,9.8,27.5C831,754.3,830.2,757,829.1,758.5z"/>
</svg>
