<svg xmlns="http://www.w3.org/2000/svg" width="119.296" height="101.274" viewBox="0 0 119.296 101.274">
  <g id="Group_1269" data-name="Group 1269" transform="translate(0 0)">
    <g id="Group_1158" data-name="Group 1158" transform="translate(0)">
      <g id="Group_1156" data-name="Group 1156" transform="translate(0)">
        <path id="Path_921" data-name="Path 921" d="M118.2,48.156,72.089,1.021C71.943.876,71.651.73,71.5.584h0a3.189,3.189,0,0,1-.73-.438h-.292A2.483,2.483,0,0,0,69.462,0H24.078a3.6,3.6,0,0,0-3.356,2.335,3.578,3.578,0,0,0,.876,3.94L42.611,26.121,23.64,45.676,6.275,26.851a3.4,3.4,0,0,0-3.94-.876A3.6,3.6,0,0,0,0,29.332V70.483A3.687,3.687,0,0,0,2.189,73.84a4.317,4.317,0,0,0,1.459.292A4.546,4.546,0,0,0,6.275,73.11L23.64,55.745l19.846,20.43L21.451,94.853a3.654,3.654,0,0,0,2.335,6.421H69.462a1.851,1.851,0,0,0,.876-.146h.292c.292-.146.584-.146.73-.438h0c.146-.146.438-.292.584-.438L118.2,53.264A3.526,3.526,0,0,0,118.2,48.156ZM60.852,7.3,47.719,20.868,33.272,7.3ZM7.3,61.728V38.671L18.387,50.637Zm41.3,19.7,11.528,11.82.73.73h-27ZM69.462,92.373,28.894,50.783,69.462,8.9l41.006,41.735Z" transform="translate(0)" fill="#fff"/>
        <circle id="Ellipse_253" data-name="Ellipse 253" cx="4.086" cy="4.086" r="4.086" transform="translate(87.995 45.967)" fill="#fff"/>
      </g>
    </g>
  </g>
</svg>
