<?xml version="1.0" encoding="utf-8"?>
<!-- Generator: Adobe Illustrator 22.1.0, SVG Export Plug-In . SVG Version: 6.00 Build 0)  -->
<svg version="1.1" id="Capa_1" xmlns="http://www.w3.org/2000/svg" xmlns:xlink="http://www.w3.org/1999/xlink" x="0px" y="0px"
	 viewBox="0 0 263.3 101.3" style="enable-background:new 0 0 263.3 101.3;" xml:space="preserve">
<style type="text/css">
	.st0{fill:#FFFFFF;}
</style>
<g id="Group_1275" transform="translate(0 -34.428)">
	<g id="Group_1154" transform="translate(0 34.428)">
		<path id="Path_918" class="st0" d="M-0.4,50c0-14.9,11.3-26,26.7-26c15.1,0,26.5,11.1,26.5,26s-11.5,26-26.5,26
			C10.9,76.1-0.4,65-0.4,50z M42.7,50c0-10.3-6.6-18.2-16.4-18.2C16,31.7,9.8,39.8,9.8,50C9.8,60.3,16.2,68,26.3,68
			C36.3,68.2,42.7,60.1,42.7,50z"/>
		<path id="Path_919" class="st0" d="M91.4,43.2v14.3h-7.5v-5.8c-2.6,0-6.4,2.4-10.3,6.6v11.1h7v6.8H58.3v-6.8h6.8V50.7h-6.8v-7.5
			l15.4,0.2l-0.2,8.1c4.5-4.9,9.8-8.3,14.5-8.3H91.4z"/>
		<path id="Path_920" class="st0" d="M119.8,69.1v7H97.1v-7h7v-19h-7v-7h15.6v26H119.8z M101.8,32.3c0-2.8,2.6-4.9,6-4.9
			c3.6,0,6.2,2.1,6.2,4.9c0,2.6-2.4,4.9-6.2,4.9C104.4,37,101.8,34.9,101.8,32.3z"/>
	</g>
</g>
<g id="Group_1269" transform="translate(0 0)">
	<g id="Group_1158" transform="translate(0)">
		<g id="Group_1156" transform="translate(0)">
			<path id="Path_921" class="st0" d="M262.2,48.2L216.1,1c-0.1-0.1-0.4-0.3-0.6-0.4l0,0c-0.3-0.1-0.5-0.3-0.7-0.4h-0.3
				c-0.3-0.1-0.7-0.2-1-0.1h-45.4c-1.5,0-2.8,0.9-3.4,2.3c-0.5,1.4-0.2,2.9,0.9,3.9l21,19.8l-19,19.6l-17.4-18.8
				c-1-1.1-2.6-1.5-3.9-0.9c-1.4,0.5-2.3,1.9-2.3,3.4v41.2c0,1.5,0.9,2.8,2.2,3.4c0.5,0.2,1,0.3,1.5,0.3c1-0.1,1.9-0.4,2.6-1
				l17.4-17.4l19.8,20.4l-22,18.7c-1.5,1.3-1.7,3.6-0.4,5.2c0.7,0.8,1.7,1.3,2.7,1.3h45.7c0.3,0,0.6,0,0.9-0.1h0.3
				c0.3-0.1,0.6-0.1,0.7-0.4l0,0c0.1-0.1,0.4-0.3,0.6-0.4l46.3-47c1.4-1.3,1.5-3.6,0.1-5C262.3,48.2,262.2,48.2,262.2,48.2z
				 M204.9,7.3l-13.1,13.6L177.3,7.3H204.9z M151.3,61.7V38.7l11.1,12L151.3,61.7z M192.6,81.4l11.5,11.8l0.7,0.7h-27L192.6,81.4z
				 M213.5,92.4l-40.6-41.6l40.6-41.9l41,41.7L213.5,92.4z"/>
			<circle id="Ellipse_253" class="st0" cx="236.1" cy="50.1" r="4.1"/>
		</g>
	</g>
</g>
</svg>
