<?xml version="1.0" encoding="utf-8"?>
<!-- Generator: Adobe Illustrator 22.1.0, SVG Export Plug-In . SVG Version: 6.00 Build 0)  -->
<svg version="1.1" id="Capa_1" xmlns="http://www.w3.org/2000/svg" xmlns:xlink="http://www.w3.org/1999/xlink" x="0px" y="0px" 
	 viewBox="0 0 1470 1470" style="enable-background:new 0 0 1470 1470;" xml:space="preserve">
<style type="text/css">
	.st0{fill:#55E0CB;}
	.st1{fill:#6F7F91;}
</style>
<g id="Group_1277" transform="translate(-3 11)">
	<g id="Group_1270" transform="translate(-270 -2.939)">
		<g id="Group_1158" transform="translate(337.076 36)">
			<g id="Group_1156" transform="translate(0)">
				<path id="Path_921" class="st0" d="M1069.1,449.6L755.9,129.4c-1-1-3-2-4-3l0,0c-1.8-0.8-3.4-1.8-5-3h-2c-2.2-0.8-4.6-1.1-6.9-1
					H429.8c-10.2,0-19.2,6.4-22.8,15.9c-3.7,9.3-1.4,19.9,5.9,26.8l142.7,134.8L426.8,432.7l-118-127.8c-6.6-7.6-17.5-10.1-26.8-5.9
					c-9.5,3.6-15.8,12.6-15.9,22.8v279.5c0,9.9,5.9,18.8,14.9,22.8c3.2,1.2,6.5,1.9,9.9,2c6.5-0.4,12.8-2.8,17.8-6.9l117.9-117.9
					l134.8,138.7L411.9,766.7c-10.4,8.9-11.6,24.6-2.7,35c4.6,5.4,11.4,8.6,18.5,8.6h310.2c2,0.2,4.1-0.2,5.9-1h2c2-1,4-1,5-3l0,0
					c1-1,3-2,4-3l314.2-319.2c9.6-9.1,10-24.3,0.8-33.9C1069.7,450.1,1069.4,449.8,1069.1,449.6z M679.6,172l-89.2,92.2L492.2,172
					H679.6z M315.8,541.7V385.1l75.3,81.3L315.8,541.7z M596.3,675.6l78.3,80.3l5,5H496.2L596.3,675.6z M738,749.9L462.5,467.4
					L738,182.9l278.5,283.5L738,749.9z"/>
				<circle id="Ellipse_253" class="st1" cx="891.7" cy="462.4" r="27.8"/>
			</g>
		</g>
	</g>
	<g id="Group_1275" transform="translate(66.902 152.847)">
		<g id="Group_1154" transform="translate(0 34.428)">
			<path id="Path_918" class="st1" d="M265.5,961.1c0-81.9,62.2-143.1,147.2-143.1c82.9,0,146.2,61.2,146.2,143.1
				s-63.2,143.1-146.2,143.1C327.7,1105.2,265.5,1044.1,265.5,961.1z M502.9,961.1c0-57-36.3-100.6-90.2-100.6
				c-57,0-91.2,44.6-91.2,100.6c0,57,35.3,99.5,91.2,99.5C467.6,1061.7,502.9,1017.1,502.9,961.1z"/>
			<path id="Path_919" class="st1" d="M771.4,923.8v78.8h-41.5v-32.1c-14.5,0-35.3,13.5-57,36.3v61.2h38.4v37.3H588.9v-37.3h37.3
				V965.3h-37.3v-41.5l85,1l-1,44.6c24.9-27,53.9-45.6,79.8-45.6H771.4z"/>
			<path id="Path_920" class="st1" d="M927.9,1066.9v38.4H802.5v-38.4h38.4V962.2h-38.4v-38.4h86v143.1H927.9z M828.4,863.7
				c0-15.6,14.5-27,33.2-27c19.7,0,34.2,11.4,34.2,27c0,14.5-13.5,27-34.2,27C842.9,889.6,828.4,878.2,828.4,863.7z"/>
		</g>
	</g>
</g>
</svg>
